name processed_emg_signals
nRows=100
nColumns=7
 
endheader
time	RGLTMED	RRF	RADDLONG	RST	RTA	RGM
1.92	0.0803850292878549	0.0870645866790779	0.2193826509163018	0.0818191504497889	0.406128996024365	0.09313615011067
1.921	0.0804197251413858	0.0846972003003986	0.2190050316193736	0.080580439802439	0.4042564624107606	0.0926278556321704
1.922	0.08045692587485	0.0823602884340743	0.218626199263872	0.0793031119009407	0.4023859737285044	0.0921253929191506
1.923	0.0804966540587125	0.0800579902851985	0.2182445186110416	0.0779872458769375	0.400517007870126	0.091629209446487
1.924	0.0805389426640457	0.077794517814594	0.2178584256457607	0.0766329869971608	0.3986489727765598	0.0911397302462121
1.925	0.080583835035223	0.0755741525987419	0.2174664308460142	0.0752405490021876	0.3967812095487802	0.0906573579845553
1.926	0.0806313848331561	0.0734012425227547	0.2170671223022497	0.0738102164002799	0.3949129956668359	0.0901824730766671
1.927	0.080681655948669	0.0712801983067761	0.2166591686839893	0.0723423467113405	0.3930435483088149	0.0897154338387364
1.928	0.0807347223860067	0.069215489866487	0.2162413220518019	0.070837372655887	0.3911720277627345	0.0892565766770429
1.929	0.0807906681162976	0.0672116425084887	0.2158124205132859	0.0692958042839358	0.3892975409244743	0.0888062163136516
1.93	0.0808495869010595	0.0652732329618212	0.2153713907220291	0.0677182310385207	0.3874191448748325	0.088364646048176
1.931	0.0809115820853484	0.0634048852470756	0.2149172502187512	0.0661053237485498	0.3855358505283482	0.0879321380552385
1.932	0.0809767663603884	0.0616112663847494	0.2144491096140059	0.0644578365456432	0.3836466263463917	0.0875089437168739
1.933	0.0810452614952516	0.0598970819450665	0.2139661746112823	0.062776608699351	0.3817504021070363	0.0870952939891399
1.934	0.0811171980373433	0.058267071441302	0.2134677478691929	0.0610625663651119	0.3798460727242879	0.0866913998020312
1.935	0.0811927149817186	0.0567260035689449	0.2129532307010663	0.0593167242390803	0.3779325021092772	0.0862974524916395
1.936	0.0812719594095639	0.0552786712928869	0.2124221246098537	0.057540187113959	0.3760085270660583	0.0859136242634104
1.937	0.0813550860965381	0.0539298867853446	0.2118740326562272	0.0557341513298043	0.3740729612144074	0.0855400686852992
1.938	0.0814422570920046	0.0526844762169995	0.2113086606577328	0.0538999061138614	0.3721245989320064	0.0851769212095524
1.939	0.0815336412704135	0.0515472744042859	0.2107258182164649	0.0520388348035713	0.3701622193082964	0.0848242997215923
1.94	0.0816294138562713	0.0505231193161038	0.2101254195730171	0.0501524159471511	0.3681845901028159	0.0844823051143362
1.941	0.0817297559241441	0.0496168464433792	0.2095074842833972	0.0482422242764325	0.36619047170142	0.084151021886132
1.942	0.081834853875241	0.0488332830352597	0.2088721377160036	0.0463099315469732	0.3641786210642279	0.0838305187601681
1.943	0.0819448988922233	0.0481772422060671	0.2082196113650974	0.0443573072406714	0.3621477956591118	0.0835208493231121
1.944	0.082060086373764	0.047653516917632	0.2075502429777197	0.0423862191264214	0.3600967573740866	0.0832220526804848
1.945	0.0821806153505166	0.0472668738421548	0.2068644764911073	0.0403986336746194	0.3580242764016345	0.0829341541261107
1.946	0.0823066878840486	0.0470220471111403	0.2061628617784677	0.0383966163214121	0.3559291350875541	0.0826571658230999
1.947	0.0824385084502825	0.0469237319566756	0.2054460542011665	0.0363823315791453	0.3538101317365872	0.0823910874937396
1.948	0.0825762833089877	0.0469765782517334	0.2047148139666384	0.0343580429894823	0.3516660843668556	0.0821359071158579
1.949	0.0827202198605985	0.0471851839561716	0.2039700052913305	0.0323261129162388	0.3494958344048796	0.0818916016233979
1.95	0.0828705259915341	0.0475540884757151	0.2032125953690347	0.0302890021750868	0.3472982503128932	0.0816581376089669
1.951	0.0830274094092329	0.0480877659409721	0.2024436531448159	0.0282492694976098	0.345072231140467	0.0814354720262477
1.952	0.0831910769677044	0.048790618413772	0.2016643478961719	0.0262095708275143	0.3428167099928403	0.0812235528903806
1.953	0.0833617339846334	0.0496669690284714	0.200875947622999	0.0241726584470052	0.3405306574091879	0.0810223199743263
1.954	0.0835395835507001	0.0507210550758415	0.2000798172497269	0.022141379931646	0.3382130846446453	0.0808317054994044
1.955	0.0837248258322982	0.0519570210373323	0.1992774166435792	0.0201186769322725	0.3358630468507867	0.0806516348181736
1.956	0.083917657368526	0.0533789115778388	0.1984702984536908	0.0181075837826874	0.3334796461501254	0.0804820270877599
1.957	0.0841182703638235	0.0549906645051737	0.1976601057761463	0.016111225932187	0.3310620346008786	0.0803227959318601
1.958	0.0843268519774735	0.0567961037050321	0.1968485696501293	0.0141328182020811	0.3286094170488211	0.0801738500895834
1.959	0.0845435836114347	0.0587989320606034	0.1960375063900039	0.0121756628656352	0.3261210538630513	0.0800350940494345
1.96	0.084768640197786	0.0610027243666092	0.195228814758279	0.0102431475508127	0.3235962635525109	0.0799064286666004
1.961	0.085002189486953	0.0634109202478448	0.1944244729839307	0.0083387429654152	0.321034425259975	0.0797877517619277
1.962	0.085244391338119	0.0660268170928138	0.1936265356306637	0.0064660004441221	0.3184349811303834	0.0796789587007082
1.963	0.0854953970128835	0.0688535630134984	0.1928371303196926	0.0046285493171272	0.3157974385507765	0.0795799429495951
1.964	0.0857553484735842	0.0718941498426287	0.1920584543116568	0.0028300941000651	0.3131213722593869	0.079490596610096
1.965	0.0860243776873686	0.0751514061803321	0.191292770953172	0.001074411505252	0.3104064263222496	0.0794108109272329
1.966	0.0863026059373028	0.0786279905024547	0.1905424059938512	0.0006346527256469	0.3076523159763338	0.0793404767722436
1.967	0.0865901431416743	0.0823263843429942	0.189809743780046	0.0022931871670186	0.3048588293391884	0.0792794850984141
1.968	0.0868870871825448	0.0862488855633192	0.1890972233319476	0.0038972182320111	0.3020258289856504	0.0792277273692684
1.969	0.0871935232449623	0.0903976017210696	0.1884073343101362	0.0054427138714666	0.2991532533926708	0.0791850959584351
1.97	0.0875095231681077	0.094774443551235	0.1877426128778848	0.0069255874475379	0.296241118253384	0.0791514845205605
1.971	0.0878351448099042	0.0993811185722703	0.187105637464892	0.0083417017802626	0.2932895176615105	0.0791267883326154
1.972	0.0881704314267178	0.1042191248298846	0.1864990244379337	0.009686873364924	0.2902986251669555	0.0791109046050436
1.973	0.0885154110699235	0.1092897447915105	0.1859254236835411	0.0109568767579292	0.2872686947032405	0.079103732762183
1.974	0.0888700960007534	0.1145940394044161	0.1853875141080371	0.0121474491286987	0.2842000613874249	0.0791051746914126
1.975	0.0892344821250473	0.1201328423309708	0.1848879990603258	0.0132542949749515	0.2810931421935317	0.0791151349606652
1.976	0.0896085484490194	0.1259067543741545	0.184429601683237	0.014273090998555	0.2779484365012341	0.0791335210039547
1.977	0.0899922565573004	0.1319161381070463	0.1840150602001681	0.015199491139118	0.2747665265226321	0.079160243274922
1.978	0.0903855501141519	0.138161112719737	0.1836471231437589	0.0160291317621737	0.2715480776109977	0.0791952153686938
1.979	0.090788354388909	0.1446415490971389	0.1833285445343412	0.0167576369987962	0.2682938384561653	0.079238354112802
1.98	0.0912005758065586	0.1513570651411186	0.1830620790160602	0.0173806242330362	0.2650046411716406	0.0792895796280344
1.981	0.091622101524203	0.1583070213500007	0.1828504769588729	0.0178937097335717	0.2616814012785364	0.0793488153604857
1.982	0.0920527990343497	0.1654905166682608	0.1826964795345027	0.0182925144254767	0.2583251175911828	0.0794159880860292
1.983	0.0924925157954178	0.1729063846191586	0.1826028137748771	0.0185726697979768	0.2549368720089069	0.0794910278888633
1.984	0.0929410788901067	0.1805531897327212	0.1825721876207494	0.0187298239437772	0.2515178292180274	0.079573868115674
1.985	0.0933982947117204	0.1884292242812299	0.1826072849689507	0.0187596477252376	0.2480692363078309	0.0796644453072629
1.986	0.0938639486785591	0.1965325053341947	0.1827107607259362	0.0186578410624224	0.2445924223040446	0.0797626991093552
1.987	0.0943378049761672	0.2048607721441682	0.1828852358757763	0.0184201393375962	0.2410887976231703	0.0798685721641007
1.988	0.0948196063273179	0.2134114838745832	0.183133292570416	0.0180423199102875	0.237559853450655	0.0799820099837089
1.989	0.0953090737895161	0.2221818176803423	0.183457469250029	0.0175202087367783	0.2340071610457346	0.0801029608074621
1.99	0.0958059065800546	0.2311686671515157	0.1838602558006725	0.0168496870872813	0.230432370975537	0.0802313754433213
1.991	0.0963097819288767	0.2403686411302438	0.184344088756525	0.0160266983538308	0.2268372122809649	0.0803672070951868
1.992	0.0968203549595077	0.2497780629108452	0.1849113465531085	0.0150472549413444	0.223223491577107	0.0805104111769932
1.993	0.0973372585988631	0.2593929698329015	0.1855643448383176	0.0139074452339731	0.2195930920913938	0.0806609451145259
1.994	0.0978601035165973	0.2692091132771639	0.1863053318479091	0.0126034406282903	0.2159479726431576	0.0808187681359
1.995	0.0983884780948173	0.2792219590741887	0.18713648385208	0.0111315026245662	0.212290166568683	0.0809838410514892
1.996	0.0989219484291529	0.2894266883355399	0.1880599006803499	0.009487989967072	0.2086217805960591	0.0811561260239542
1.997	0.0994600583623197	0.2998181987176899	0.189077601331217	0.0076693658238725	0.2049449936740476	0.0813355863291583
1.998	0.1000023295516326	0.3103911061280802	0.190191519673594	0.0056722049964653	0.2012620557588773	0.081522186108906
1.999	0.1005482615719555	0.3211397468828649	0.1914035002466209	0.0034932011491741	0.1975752865622645	0.081715890116561
2.0	0.1010973320554831	0.3320581803249382	0.192715294164401	0.0011291740478022	0.1938870742633468	0.0819166634569475
2.001	0.1016489968698271	0.3431401919106631	0.1941285551318881	0.0014229232031673	0.1901998741866267	0.082124471322007
2.0020000000000002	0.1022026903354066	0.3543792967728893	0.1956448355782183	0.004165996936065	0.186516207447458	0.0823392787240883
2.003	0.1027578254833903	0.3657687437677074	0.1972655829130696	0.0071028057196581	0.1828386595661101	0.0825610502286054
2.004	0.1033137943551133	0.3773015200117297	0.1989921359119526	0.0102359531947286	0.17916987905098	0.0827897496879392
2.005	0.1038699683441515	0.3889703559162536	0.200825721236083	0.0135678809577925	0.1755125759509686	0.0830253399782803
2.0060000000000002	0.1044256985820482	0.4007677307240869	0.2027674500926703	0.0171008615054499	0.171869520376502	0.0832677827409378
2.007	0.1049803163686776	0.4126858785536847	0.2048183150412979	0.0208369912522025	0.1682435409881611	0.0835170381296144
2.008	0.105533133647909	0.4247167949545087	0.2069791869524811	0.0247781836347221	0.1646375234512107	0.0837730645649381
2.009	0.1060834435289227	0.4368522439762311	0.2092508121237437	0.0289261623158914	0.1610544088539411	0.0840358184974272
2.0100000000000002	0.1066305208535869	0.44908376575304	0.2116338095587379	0.0332824545019439	0.1574971920871125	0.0843052541798922
2.011	0.1071736228099876	0.4614026846034734	0.2141286684140897	0.0378483843864103	0.1539689201815215	0.0845813234501118
2.012	0.1077119895922012	0.4738001176443881	0.216735745618691	0.0426250667345016	0.1504726906002457	0.0848639755244559
2.013	0.1082448451062845	0.4862669839165952	0.2194552636693945	0.0476134006218088	0.1470116494821079	0.0851531568030995
2.0140000000000002	0.1087713977223245	0.4987940140185257	0.2222873086073492	0.0528140633411992	0.1435889898327028	0.0854488106873621
2.015	0.1092908410721336	0.5113717602427894	0.2252318281784037	0.0582275044919492	0.1402079496595984	0.0857508774095538
2.016	0.1098023548921114	0.5239906072091611	0.2282886301807329	0.0638539402652013	0.1368718100483686	0.0860592938757584
2.017	0.1103051059107717	0.5366407829862043	0.2314573810024138	0.069693347939814	0.1335838931763306	0.0863739935218362
2.0180000000000002	0.1107982487800903	0.5493123706920247	0.2347376043508502	0.0757454606026849	0.1303475602608471	0.0866949061830627
2.019	0.111280927050075	0.5619953205633502	0.2381286801757267	0.082009762107688	0.127166209438959	0.0870219579777211
